<svg xmlns="http://www.w3.org/2000/svg" xmlns:xlink="http://www.w3.org/1999/xlink" viewBox="0,0,256,256" width="48px" height="48px" fill-rule="nonzero"><defs><linearGradient x1="20.526" y1="4.301" x2="27.474" y2="43.699" gradientUnits="userSpaceOnUse" id="color-1"><stop offset="0" stop-color="#1d11e7"></stop><stop offset="0.438" stop-color="#626262"></stop><stop offset="0.998" stop-color="#454545"></stop></linearGradient></defs><g fill="none" fill-rule="nonzero" stroke="none" stroke-width="1" stroke-linecap="butt" stroke-linejoin="miter" stroke-miterlimit="10" stroke-dasharray="" stroke-dashoffset="0" font-family="none" font-weight="none" font-size="none" text-anchor="none" style="mix-blend-mode: normal"><g transform="scale(5.33333,5.33333)"><path d="M44,24c0,11.045 -8.955,20 -20,20c-11.045,0 -20,-8.955 -20,-20c0,-11.045 8.955,-20 20,-20c11.045,0 20,8.955 20,20z" fill="url(#color-1)"></path><path d="M34.793,31.504l-8.049,-18.537c0,0 -0.302,-0.662 -0.332,-0.715c-0.271,-0.472 -0.678,-0.834 -1.178,-1.05c-0.614,-0.264 -1.295,-0.271 -1.913,-0.024c-0.62,0.248 -1.106,0.723 -1.368,1.335l-8.841,20.592c-0.181,0.421 -0.139,0.901 0.113,1.284c0.253,0.382 0.677,0.611 1.135,0.611h2.226c0.701,0 1.332,-0.416 1.608,-1.06l3.165,-7.371l9.552,7.861c0.446,0.368 1.011,0.57 1.589,0.57c0.546,0 1.065,-0.174 1.506,-0.504c0.926,-0.698 1.249,-1.929 0.787,-2.992zM26.071,23.973l-2.658,-2.188l0.85,-1.979z" fill="#000000" opacity="0.05"></path><path d="M34.335,31.703l-8.048,-18.532c0,0 -0.278,-0.618 -0.309,-0.67c-0.217,-0.377 -0.541,-0.667 -0.94,-0.839c-0.493,-0.21 -1.037,-0.217 -1.531,-0.019c-0.496,0.198 -0.885,0.578 -1.094,1.068l-8.841,20.592c-0.114,0.266 -0.088,0.569 0.071,0.811c0.159,0.241 0.427,0.386 0.717,0.386h2.226c0.501,0 0.951,-0.297 1.148,-0.757l3.428,-7.983l10.067,8.284c0.356,0.293 0.808,0.456 1.271,0.456c0.437,0 0.853,-0.139 1.204,-0.403c0.741,-0.559 1,-1.543 0.631,-2.394zM24.261,18.545l3.097,7.133l-4.552,-3.745z" fill="#000000" opacity="0.05"></path><path d="M33.876,31.902l-8.045,-18.527c0,0 -0.257,-0.575 -0.286,-0.625c-0.155,-0.27 -0.395,-0.495 -0.703,-0.628c-0.765,-0.327 -1.645,0.025 -1.97,0.787l-8.841,20.591c-0.102,0.236 0.072,0.5 0.329,0.5h2.226c0.3,0 0.571,-0.179 0.689,-0.454l3.69,-8.595l10.581,8.707c0.277,0.228 0.615,0.342 0.954,0.342c0.317,0 0.635,-0.101 0.903,-0.302c0.553,-0.417 0.749,-1.159 0.473,-1.796zM22.198,22.08l2.059,-4.796l4.385,10.099z" fill="#ffffff"></path></g></g></svg>